<?xml version="1.0" encoding="utf-8"?><svg xmlns="http://www.w3.org/2000/svg" xmlns:xlink="http://www.w3.org/1999/xlink"><symbol viewBox="0 0 38.57 42.08" id="doc" xmlns="http://www.w3.org/2000/svg"><path d="M15.993 23.372v-1.285c0-.362.281-.643.643-.643H30.78c.361 0 .643.281.643.643v1.285a.635.635 0 01-.643.643H16.636a.635.635 0 01-.643-.643zm.643 3.215H30.78c.361 0 .643.281.643.643v1.285a.635.635 0 01-.643.643H16.636a.635.635 0 01-.643-.643V27.23c0-.362.281-.643.643-.643zm0 5.143H30.78c.361 0 .643.28.643.642v1.286a.635.635 0 01-.643.643H16.636a.635.635 0 01-.643-.643v-1.286c0-.361.281-.642.643-.642z"/><path fill-rule="evenodd" clip-rule="evenodd" d="M8.279 15.315a7.415 7.415 0 117.173-9.3h12.755c1.065 0 2.552.623 3.295 1.366l6.268 6.268c.743.744 1.366 2.23 1.366 3.295v23.143a1.93 1.93 0 01-1.928 1.928h-27a1.93 1.93 0 01-1.93-1.928V15.315zm2.571-.458a7.421 7.421 0 004.813-6.27h10.616v8.357a1.93 1.93 0 001.928 1.928h8.358v20.572H10.85V14.857zm18.824-5.668c-.14-.14-.482-.321-.824-.442v7.554h7.554c-.12-.341-.301-.683-.442-.824L29.674 9.19zM9.279 8.9h4v-2h-4v-4h-2v4h-4v2h4v4h2v-4z"/></symbol><symbol viewBox="0 0 36 28.28" id="mail" xmlns="http://www.w3.org/2000/svg"><path d="M33.795 25.107a.661.661 0 01-.643.643H3.581a.661.661 0 01-.643-.643V9.68c.422.482.884.924 1.386 1.325 2.873 2.21 5.766 4.46 8.558 6.79 1.507 1.266 3.375 2.813 5.464 2.813h.04c2.09 0 3.958-1.547 5.465-2.812 2.792-2.33 5.685-4.58 8.558-6.79.502-.402.964-.844 1.386-1.326v15.428zm0-21.114c0 1.708-1.647 3.938-2.953 4.962a1287.32 1287.32 0 00-8.056 6.369c-1.065.864-2.993 2.712-4.4 2.712h-.04c-1.406 0-3.334-1.849-4.4-2.712-2.67-2.13-5.363-4.26-8.055-6.369C4.083 7.53 2.938 5.54 2.938 3.25a.66.66 0 01.643-.643h29.571c.764 0 .643.884.643 1.386zm2.572-.743A3.224 3.224 0 0033.152.036H3.581A3.224 3.224 0 00.367 3.25v21.857a3.224 3.224 0 003.214 3.214h29.571a3.224 3.224 0 003.215-3.214V3.25z"/></symbol><symbol viewBox="0 0 38.57 25.71" id="money" xmlns="http://www.w3.org/2000/svg"><path d="M15.729 18.536v-1.929H18.3v-5.786h-.04c-.321.503-.623.724-1.105 1.146l-1.547-1.608 2.973-2.752h2.29v9h2.572v1.929h-7.714zm10.286-5.143c0-3.656-2.21-8.357-6.43-8.357-4.218 0-6.428 4.7-6.428 8.357 0 3.656 2.21 8.357 6.429 8.357s6.429-4.7 6.429-8.357zM36.3 18.536a5.153 5.153 0 00-5.143 5.143H8.014a5.153 5.153 0 00-5.142-5.143V8.25a5.153 5.153 0 005.142-5.143h23.143A5.153 5.153 0 0036.3 8.25v10.286zM38.872 1.82c0-.703-.583-1.285-1.286-1.285h-36A1.296 1.296 0 00.3 1.82v23.143c0 .703.583 1.286 1.286 1.286h36c.703 0 1.286-.583 1.286-1.286V1.821z"/></symbol><symbol viewBox="0 0 30.86 30.86" id="percent" xmlns="http://www.w3.org/2000/svg"><path d="M25.786 23.964a2.59 2.59 0 01-2.572 2.572 2.59 2.59 0 01-2.571-2.572 2.59 2.59 0 012.571-2.571 2.59 2.59 0 012.572 2.571zM10.357 8.536a2.59 2.59 0 01-2.571 2.571 2.59 2.59 0 01-2.572-2.571 2.59 2.59 0 012.572-2.572 2.59 2.59 0 012.571 2.572zM30.93 23.964a7.716 7.716 0 00-7.715-7.714 7.716 7.716 0 00-7.714 7.714 7.716 7.716 0 007.714 7.715 7.716 7.716 0 007.715-7.715zM29 2.107c0-.703-.583-1.286-1.286-1.286H24.5c-.402 0-.784.201-1.025.523L2.261 29.629c-.16.221-.261.483-.261.764 0 .703.583 1.286 1.286 1.286H6.5c.402 0 .783-.201 1.025-.523L28.739 2.871c.16-.221.261-.483.261-.764zM15.5 8.536A7.716 7.716 0 007.786.82 7.716 7.716 0 00.07 8.536a7.716 7.716 0 007.715 7.714A7.716 7.716 0 0015.5 8.536z"/></symbol><symbol viewBox="0 0 33.43 33.43" id="search" xmlns="http://www.w3.org/2000/svg"><path d="M23.929 14.929c0 4.962-4.038 9-9 9s-9-4.038-9-9 4.038-9 9-9 9 4.038 9 9zm10.285 16.714c0-.683-.281-1.346-.743-1.808l-6.89-6.89a14.11 14.11 0 002.49-8.016C29.071 7.114 22.743.786 14.93.786 7.114.786.786 7.114.786 14.929c0 7.814 6.328 14.142 14.143 14.142a14.11 14.11 0 008.015-2.49l6.89 6.87a2.522 2.522 0 001.809.763 2.59 2.59 0 002.571-2.571z"/></symbol></svg>